<?xml version="1.0" standalone="no"?>
<!DOCTYPE svg PUBLIC "-//W3C//DTD SVG 20010904//EN"
 "http://www.w3.org/TR/2001/REC-SVG-20010904/DTD/svg10.dtd">
<svg version="1.0" xmlns="http://www.w3.org/2000/svg"
 width="566.000000pt" height="397.000000pt" viewBox="0 0 566.000000 397.000000"
 preserveAspectRatio="xMidYMid meet">
<metadata>
Created by potrace 1.16, written by Peter Selinger 2001-2019
</metadata>
<g transform="translate(0.000000,397.000000) scale(0.100000,-0.100000)"
fill="#000000" stroke="none">
<path d="M0 1985 l0 -1985 2830 0 2830 0 0 1985 0 1985 -2830 0 -2830 0 0
-1985z m1180 935 l0 -630 545 0 545 0 0 630 0 630 320 0 320 0 0 -1034 c0
-575 -4 -1045 -9 -1058 -5 -13 -34 -51 -65 -86 l-56 -63 -2 1053 -3 1053 -182
3 -183 2 0 -630 0 -630 -685 0 -685 0 0 624 0 624 -31 6 c-17 3 -58 6 -90 6
l-59 0 0 59 c0 48 3 60 18 64 9 3 81 5 160 6 l142 1 0 -630z m4020 621 c0 -12
-194 -241 -383 -453 -82 -93 -150 -169 -151 -170 0 0 -192 -4 -426 -7 l-425
-6 -55 -26 c-112 -54 -174 -151 -174 -274 -1 -85 23 -142 85 -210 83 -90 108
-96 434 -106 190 -5 289 -12 334 -23 322 -81 582 -323 685 -639 67 -204 54
-467 -31 -662 -96 -217 -296 -411 -520 -505 -153 -64 -120 -62 -1208 -67 -544
-3 -1013 -2 -1042 2 l-53 6 0 625 0 624 -545 0 -545 0 0 -393 0 -393 -68 -56
c-38 -31 -143 -121 -233 -200 -225 -196 -319 -271 -327 -263 -4 4 -8 441 -10
972 -2 884 -1 965 14 959 8 -3 40 -6 69 -6 l53 0 -5 -612 c-2 -337 -1 -709 4
-825 l8 -213 80 67 c44 37 123 105 175 151 l95 84 5 432 5 431 680 0 680 0 3
-626 2 -627 283 -7 c155 -4 584 -5 952 -2 723 5 740 7 878 62 179 72 353 237
437 416 98 209 96 475 -5 688 -102 214 -291 376 -517 442 -63 18 -110 22 -353
29 -306 8 -336 13 -425 70 -110 71 -199 213 -208 332 -16 219 110 402 318 462
46 13 123 17 441 19 l385 2 66 70 c112 119 248 289 239 298 -4 4 -262 7 -572
5 -541 -4 -567 -5 -641 -26 -284 -78 -514 -309 -588 -588 -24 -90 -29 -274
-10 -359 30 -136 96 -271 185 -378 85 -102 231 -199 365 -243 82 -26 96 -28
365 -34 358 -9 394 -19 523 -142 144 -137 173 -363 68 -541 -53 -92 -169 -172
-284 -196 -74 -15 -1122 -15 -1122 0 0 22 72 109 93 114 12 3 243 6 512 7
l490 3 61 28 c34 16 78 45 97 65 139 143 96 389 -85 487 l-53 29 -265 8 c-171
5 -293 13 -344 23 -195 39 -353 129 -493 279 -155 165 -230 331 -253 560 -23
229 34 446 165 631 62 88 209 223 301 277 94 55 233 104 330 117 93 12 1454
14 1454 2z"/>
</g>
</svg>
