<?xml version="1.0" standalone="no"?>
<!DOCTYPE svg PUBLIC "-//W3C//DTD SVG 20010904//EN"
 "http://www.w3.org/TR/2001/REC-SVG-20010904/DTD/svg10.dtd">
<svg version="1.0" xmlns="http://www.w3.org/2000/svg"
 width="698.000000pt" height="210.000000pt" viewBox="0 0 698.000000 210.000000"
 preserveAspectRatio="xMidYMid meet">

<g transform="translate(0.000000,210.000000) scale(0.100000,-0.100000)"
fill="#ffffff" stroke="none">
<path d="M3673 1998 c-5 -7 -81 -213 -167 -458 l-157 -445 -52 -50 c-30 -30
-69 -56 -93 -64 -38 -12 -43 -12 -62 7 -12 12 -40 31 -64 43 -56 28 -54 26
-33 49 21 24 54 26 81 5 31 -23 63 -19 70 10 8 32 -15 60 -63 76 -73 24 -152
-14 -176 -85 -21 -62 -72 -133 -108 -152 -17 -8 -33 -14 -35 -12 -2 2 8 35 21
74 29 81 30 102 9 132 -26 38 -97 28 -151 -21 -29 -26 -35 -20 -21 25 14 48 6
68 -30 68 -26 0 -31 -6 -51 -56 -29 -77 -171 -243 -208 -244 -14 0 4 67 43
164 18 44 21 63 13 77 -13 25 -44 24 -68 -2 -18 -19 -23 -20 -50 -9 -56 23
-120 -18 -182 -116 -46 -72 -122 -144 -152 -144 -21 0 -21 3 -1 136 5 31 2 44
-12 58 -17 17 -28 17 -82 1 -21 -7 -22 -6 -12 19 5 15 10 47 10 72 0 50 -25
84 -63 84 -33 0 -106 -49 -150 -100 -20 -24 -39 -41 -42 -38 -3 2 7 33 20 69
30 74 27 109 -9 109 -32 0 -40 -12 -77 -114 -35 -98 -75 -151 -148 -198 -49
-31 -81 -36 -81 -14 0 8 19 50 42 95 35 67 39 82 28 95 -19 23 -46 19 -69 -10
-35 -44 -73 -132 -78 -178 -5 -38 -2 -48 20 -70 32 -32 68 -33 137 -6 27 11
50 18 50 16 0 -2 -7 -20 -15 -40 -18 -44 -6 -76 28 -76 17 0 43 29 109 123
102 144 210 261 216 235 2 -10 -13 -57 -34 -105 -44 -106 -52 -142 -33 -154
23 -15 33 -11 88 36 29 25 56 45 59 45 4 0 6 -20 4 -45 -6 -68 4 -93 42 -112
43 -20 91 -12 143 26 35 25 41 27 60 14 28 -19 69 -10 114 23 l33 24 12 -29
c24 -58 79 -63 151 -14 23 16 39 21 41 14 6 -18 32 -41 47 -41 8 0 41 35 74
78 61 79 147 169 155 161 3 -2 -5 -37 -17 -77 -19 -67 -20 -76 -6 -100 22 -39
61 -50 114 -31 l43 16 -5 -33 c-7 -45 13 -92 48 -109 37 -20 62 -19 107 4 49
25 76 56 102 113 17 39 27 49 63 61 23 8 49 18 58 22 15 5 15 2 6 -34 -9 -34
-8 -44 5 -57 25 -25 49 -10 108 72 50 70 148 170 156 161 2 -2 -5 -30 -16 -62
-34 -100 -24 -150 34 -160 24 -5 48 -1 81 14 l46 21 29 -22 c35 -25 69 -19
122 23 44 34 44 34 51 10 2 -10 17 -27 31 -36 41 -27 93 -7 153 58 64 71 91
122 77 145 -22 34 -50 26 -85 -25 -42 -63 -79 -103 -96 -103 -17 0 -16 20 3
97 19 75 14 93 -23 93 -23 0 -35 -11 -68 -62 -44 -68 -102 -134 -111 -125 -3
3 11 58 31 122 38 121 37 145 -5 145 -24 0 -37 -18 -59 -82 -10 -29 -28 -72
-39 -94 -29 -57 -112 -128 -112 -96 0 5 9 35 20 67 22 65 25 107 10 136 -8 14
-21 19 -55 19 -35 0 -53 -7 -91 -36 -26 -20 -45 -30 -42 -23 202 563 310 884
301 898 -13 21 -47 26 -60 9z m-1368 -956 c0 -14 -92 -112 -106 -112 -13 0 27
73 59 107 22 24 47 27 47 5z m731 -78 l39 -16 -65 -24 c-36 -13 -66 -24 -68
-24 -3 0 51 79 54 80 1 0 19 -7 40 -16z m25 -123 c-24 -44 -91 -64 -91 -26 0
8 1 15 3 15 1 0 20 7 42 15 53 19 58 18 46 -4z"/>
<path d="M1326 1928 c-11 -18 -266 -785 -266 -801 0 -7 -280 -20 -286 -14 -3
3 40 127 96 276 56 149 100 281 98 294 -2 17 -10 22 -33 22 l-30 0 -107 -285
c-59 -157 -111 -292 -117 -302 -8 -14 -36 -17 -190 -20 -156 -3 -183 -5 -198
-21 -14 -13 -15 -21 -7 -35 10 -15 31 -17 188 -17 97 0 176 0 176 -1 0 -1 -25
-73 -55 -160 -63 -178 -66 -209 -20 -209 30 0 30 1 95 185 l65 185 75 6 c41 4
108 7 148 8 66 1 73 -1 68 -16 -69 -218 -158 -517 -162 -545 -5 -30 -3 -38 16
-48 18 -10 25 -9 37 3 9 8 51 131 94 274 43 142 84 276 92 298 l14 40 67 6
c74 6 89 15 84 50 -3 22 -9 25 -64 29 l-61 5 128 389 c132 403 137 426 89 426
-11 0 -26 -10 -34 -22z"/>
<path d="M5260 1873 c-151 -25 -374 -150 -522 -291 -164 -157 -186 -251 -73
-318 25 -14 125 -54 223 -89 216 -76 307 -121 355 -174 46 -51 53 -79 39 -154
-32 -172 -200 -405 -349 -485 -68 -36 -132 -43 -154 -16 -43 53 192 311 327
357 42 15 60 36 51 61 -11 29 -76 20 -147 -21 -87 -51 -248 -212 -283 -282
-35 -71 -37 -139 -4 -168 34 -32 62 -43 106 -43 193 0 470 300 527 570 25 122
9 177 -77 254 -64 58 -151 100 -344 166 -176 61 -251 94 -259 117 -17 43 124
195 275 296 192 128 363 174 466 128 43 -20 86 -74 98 -124 9 -33 49 -47 72
-24 25 25 -9 110 -67 168 -66 66 -153 90 -260 72z"/>
<path d="M1431 1287 c-31 -55 -33 -80 -5 -91 23 -9 49 9 74 49 29 47 24 89
-11 93 -23 3 -31 -4 -58 -51z"/>
<path d="M6418 1313 c-8 -16 -22 -40 -32 -55 -17 -26 -17 -27 4 -48 19 -19 24
-20 43 -7 12 7 33 34 47 59 20 39 22 48 11 62 -21 26 -58 20 -73 -11z"/>
<path d="M5939 1199 c-9 -4 -24 -30 -34 -56 -20 -54 -70 -113 -96 -113 -19 0
-59 45 -59 66 0 19 -59 54 -92 54 -64 0 -128 -107 -128 -215 0 -90 41 -114
127 -76 28 13 49 33 65 60 22 40 24 41 63 35 22 -3 41 -7 43 -9 1 -1 -3 -23
-10 -49 -11 -40 -10 -48 4 -62 23 -23 48 -10 85 44 44 65 159 188 168 180 4
-4 0 -28 -9 -54 -46 -137 11 -199 129 -140 45 23 50 24 78 10 62 -33 155 5
250 101 51 52 58 78 27 95 -25 13 -43 4 -95 -50 -41 -42 -102 -80 -130 -80 -8
0 -15 2 -15 4 0 15 33 91 55 126 34 54 31 85 -9 85 -24 0 -35 -10 -72 -65 -24
-36 -54 -82 -68 -102 -27 -40 -73 -75 -84 -64 -3 4 4 35 16 69 39 110 25 157
-47 157 -26 0 -51 -9 -79 -30 -51 -37 -54 -37 -42 -4 22 57 -2 106 -41 83z
m-264 -149 c10 -31 -3 -75 -31 -105 -42 -46 -52 -14 -22 70 21 56 42 70 53 35z"/>
</g>
</svg>
